<?xml version="1.0" encoding="UTF-8"?>
<svg id="Layer_2" data-name="Layer 2" xmlns="http://www.w3.org/2000/svg" viewBox="0 0 2919.28 529.99">
  <defs>
    <style>
      .cls-1 {
        fill: #1dacd8;
      }
    </style>
  </defs>
  <g id="Layer_1-2" data-name="Layer 1">
    <path class="cls-1" d="M2192.84,112.26h-65.93c17.99,31.43,35.25,61.63,53.36,93.43,13.56-22.8,26-44.37,39.19-66.56,2.34,1.97,3.94,3.08,5.67,4.68,30.56,30.57,60.76,61.63,91.69,91.58,17.25,16.64,19.35,41.41-.12,60.15-10.72,10.35-21.2,21.2-31.79,31.55-62.11,62-124.34,124.12-186.58,185.99-4.56,4.56-9.37,9-14.91,12.2-15.28,8.63-33.4,5.18-47.08-8.5-17.62-17.5-35-35.13-52.75-52.63-55.95-55.83-112.02-111.79-168.09-167.38-12.08-12.08-18.61-25.76-12.82-42.28,2.83-8.5,9-16.64,15.28-23.17,60.51-61.01,121.51-121.65,182.64-182.29,13.06-12.94,25.63-26.5,39.68-38.33,18.61-15.41,36.97-13.93,53.98,2.83,31.67,31.18,62.85,62.61,94.28,93.92,1.23,1.23,1.97,2.22,4.31,4.81h-.01Zm-132.36,330.69c2.34-3.57,3.7-5.3,4.93-7.52,33.64-58.05,67.41-115.98,101.18-174.16,2.34-4.07,2.71-7.27,.25-11.46-13.06-22.19-25.63-44.74-38.45-66.93-3.82-6.53-7.89-13.19-13.06-21.45-18.98,31.8-37.09,61.75-55.58,92.32-1.23-1.97-1.97-2.96-2.59-4.07-16.27-27.73-32.66-55.59-48.68-83.2-2.46-4.19-5.05-5.79-9.74-5.67-21.44,.25-43.13,.12-64.7,.12h-38.57c55.58,94.91,109.93,187.84,165.01,282.01h0Zm31.67-354.84c-9.12,15.65-17.5,29.95-26.37,44.99h52.25c-8.87-15.41-17.01-29.7-25.88-44.99h0ZM0,415.88c.1-25.49,.1-51.08,.1-76.67V95.28c3.2-19.96,14.1-30.05,34.2-30.05,42.5-.11,84.9-.21,127.4,.85,39.3,.96,73.4,16.25,100.3,47.26,21.8,25.06,34.4,55.22,41,88.25,8,40.04,7.4,80.07-2.9,119.57-10.1,39.08-29,72.32-59.9,96.95-18.8,15.08-40.3,23.36-63.6,24.85-24.2,1.59-48.5,1.81-72.8,2.12-24.5,.32-49,.21-73.4,0-10.5-.11-19.6-4.35-25.3-14.02C2.4,426.71,1.6,420.97,0,415.87h0ZM63.3,129.05c-.2,1.49-.3,2.23-.3,2.87,0,81.98,0,163.86-.1,245.84,0,3.72,1.3,4.57,4.5,4.57,29.8-.11,59.6,0,89.4-.21,10.9-.11,21.3-3.08,31.1-8.07,25.1-12.74,38.9-35.26,46.4-62.55,7.8-28.46,9.6-57.45,5.2-86.65-2.7-17.73-6.7-35.15-15.4-50.87-16.3-29.42-40.2-45.34-72.6-45.66-25.5-.32-51-.11-76.6,0-3.7-.11-7.4,.42-11.6,.74h0Zm1078.14,81.7c.8-1.7,1.3-3.7,2.4-5.1,16.4-19.1,36.2-32.7,61.5-37.2,17.3-3.1,34.4-1.7,51.2,3.2,18.4,5.4,31,17.6,40,33.9,2.9,5.3,5.3,10.9,8,16.4,5.7-7,10.9-14.2,16.9-20.6,15.5-16.6,33.8-28.8,56.7-32.9,18.1-3.2,36-2.1,53.2,3.7,23.8,7.9,37.8,25.6,45.1,48.9,6.3,20.1,8.3,40.8,8.3,61.7,.1,42.6,0,85.2,.1,127.8,0,10.1-2,19.5-9.9,26.5-9.7,8.7-21,10.5-32.9,5.6-11.3-4.7-17.7-13.4-17.8-25.8-.2-41.4,.1-82.8-.3-124.2-.1-10.7-1.2-21.5-2.9-32.1-3.6-22.9-18.3-35.7-41.4-37.5-11.5-.9-22.6-.1-33.1,4.6-22.6,10.2-33.9,28.3-34.4,52.6-.7,35.7-.6,71.5-.8,107.2-.1,10.6,.6,21.2-.5,31.7-1.5,14.3-11.9,24-25.9,25.8-13.9,1.8-26.6-5.1-31.7-18.2-2-5.2-2.7-11.3-2.7-17-.2-42.8,0-85.5-.3-128.3-.1-12.1-1.2-24.3-6.9-35.4-7.2-13.8-18.7-21.8-34.2-22.6-8.6-.5-17.6-.5-25.9,1.3-24.7,5.4-40.7,23.7-43.7,48.8-.7,5.8-1.1,11.6-1.1,17.4-.1,40.5,.1,81.1-.2,121.6-.1,5.8-1.2,12.1-3.9,17.1-6.9,12.8-20.2,17.9-34.1,14.4-13.6-3.4-22.3-14.6-23.1-29.7-.1-1,0-2,0-3.1V207.06c0-8.6,1.7-16.6,7.2-23.5,8-10.2,21-14.3,33.1-10.4,12.2,4,20.7,15.2,21.1,28,.1,2.5,0,5,0,7.5,.8,.7,1.8,1.4,2.9,2.1h0Zm-439.05-.48c1.9-2.6,3.7-5.3,5.8-7.6,13.7-15.2,30-26.6,49.8-32.1,22-6,44.1-4.9,65.6,3,19.2,7.1,30.2,22.3,38.6,39.8,1.3,2.7,2.4,5.5,3.9,8.9,4.5-5.6,8.4-10.8,12.4-15.7,9.7-11.8,21.1-21.4,34.6-28.5,27-14.2,55.1-14.3,83.1-4.6,19.7,6.8,32.9,22,39.4,41.4,4.7,14.1,8.7,29.1,9.2,43.9,1.7,49.7,1.7,99.5,2.2,149.2,.1,4.7-.7,9.6-1.8,14.2-3.1,13.3-13,21.6-26.8,23-12.9,1.3-25.1-5.5-30.2-17.7-1.7-4.1-2.3-9-2.3-13.5-.2-41.1,.2-82.1-.3-123.2-.1-11.7-1.6-23.6-4.1-35-4.4-20.3-19.8-31.9-40.5-32.6-13.7-.5-27,.5-39.2,7.7-19,11.3-27.7,28.8-28.1,50-.8,42.2-.6,84.5-.9,126.7,0,5.1-.1,10.3-1.1,15.3-2.9,13.9-15.6,23-30.4,22.4-14.1-.6-26.1-11-28.2-24.7-.6-4-1-8.1-1-12.2-.1-42.9,.1-85.9-.4-128.8-.1-9.1-1.8-18.4-4.3-27.2-4.2-14.4-14-24.1-28.9-27.8-12.7-3.1-25.5-3.1-38,1.1-23.8,7.9-36.6,24.8-39.5,49.3-.8,6.6-1.1,13.3-1.1,19.9-.1,40,0,80.1-.1,120.1,0,17.1-12.8,29.9-29.8,30.2-16.8,.3-30.8-12.7-30.9-29.7-.2-51.1,0-102.3-.1-153.4,0-18.3-.4-36.6-.5-54.9-.1-10.5,2.5-19.9,10.6-27.3,9.5-8.7,20.4-10.5,31.9-5.8s18.3,13.5,18.9,26.3c.1,2.7,0,5.4,0,8,.9,.9,1.7,1.4,2.5,1.9h0Zm-155.4,200.21c-6.5,5-12,9.5-17.8,13.7-20.3,14.4-42.8,22.5-67.8,20.9-51.4-3.2-88.4-28.7-108.6-75.7-19.9-46.3-19.1-93.3,3.6-138.8,16.6-33.4,42.8-56.3,79.7-64.8,37.4-8.7,71.9-1.5,102.9,21.7,2.2,1.6,4.4,3.1,7.3,5.2,.7-2.6,1.2-4.4,1.7-6.3,3.6-15.8,16.3-25.4,32.1-24.2,16.1,1.3,27.4,12.8,28,29.3,.4,11.4,.1,22.9,.1,34.4,0,59.4,.1,118.7,.2,178.1,0,9.6-1.2,18.9-7.9,26.3-8.2,9.1-18.4,12.4-30.2,9.4-12.3-3.2-20.3-11-22.4-23.9-.3-1.6-.5-2.9-.9-5.3h0Zm2.7-106c-.4-5.8-.6-11.6-1.3-17.4-.5-4.2-1.5-8.4-2.8-12.5-10.9-35.5-39.5-61.7-83.4-56.1-25,3.2-42.3,17.9-53.5,39.4-15,28.7-14.7,58.3-1.8,87.5,11.8,26.7,37.3,47,74.9,43.2,25.1-2.6,43.7-15.4,56-37.5,8.1-14.4,11.8-30,11.9-46.6h0Zm1958.74,20.25c2.6,13.5,7.8,24.4,15.4,34.2,14.4,18.4,33.6,28.1,56.7,30.2,20.9,1.9,40.8-1.3,59.2-12.2,6.8-4,14.5-7,22.2-8.7,14.8-3.2,28.7,7.1,29.8,22.2,.8,10.3-4.8,18.6-12.6,25.2-17.1,14.4-37.3,22.2-58.9,26.3-43.4,8.2-84.3,2.1-120.6-24.3-28.2-20.5-44.2-48.9-49.8-83.1-5.1-30.9-3.1-61.3,9.3-90.1,20.3-47.1,56.1-74.9,107.5-81.1,36-4.3,67.5,7.2,94.9,30.4,24.2,20.5,39,46.9,45.6,77.7,1.8,8.4,2.4,17.3,2.4,26,0,14.6-11.9,25.6-28.3,26.9-3.1,.2-6.2,.2-9.2,.2h-155.2c-2.4,.2-4.9,.2-8.4,.2h0Zm135.8-50.8c.1-1.3,.3-2.2,.2-3-1.2-15.9-9.2-28-21.5-37.5-16.9-13.1-36.2-17-57.1-14.4-23.3,2.9-40.8,14-50.6,35.8-2.6,5.9-4.1,12.3-6.4,19.1h135.4Zm-1068.96,50.25c2.5,7,4,13.3,6.8,19,13.5,27.5,35.9,42.5,66.1,45.4,22.2,2.2,43.2-1.9,62.3-14.1,7.3-4.7,15.4-7.6,24.2-7.3,10.5,.4,18,5.5,22.5,15.2,4.9,10.5,1.2,19.5-5.3,27.5-9,11-21.4,17.6-34.3,22.7-43.9,17.3-87.8,17.7-130.4-3.2-41.3-20.3-64-54.7-70.4-100-3.6-25.3-2.1-50.4,6.1-74.4,16.9-49.6,50.8-80.8,103-90.9,52.4-10.1,104.1,18,130.8,61.2,12.2,19.6,18.5,41,20.9,63.7,2.2,20.2-11,34.9-31.4,35.2-12.2,.2-24.3,0-36.5,0-42,0-83.9,0-125.9,.1-2.3-.1-4.7-.1-8.5-.1h0Zm1.6-50.8h135.1c.1-1.2,.3-1.8,.2-2.5-.1-1.4-.3-2.7-.5-4.1-2.6-15.6-11.6-27.1-24.1-36.1-15.8-11.4-33.6-14.3-52.6-12.4-27.9,2.8-46.5,17.2-55.4,43.8-1.2,3.5-1.7,7.2-2.7,11.3h0Zm1215.33-51.83c-9.1,0-17.6,.21-26.1-.11-8.1-.21-14.9-3.79-19.9-10.54-6.7-9.06-8.6-19.07-4.2-29.82,4.4-10.85,12.7-16.33,23.4-17.49,6.8-.74,13.7-.32,20.5-.32h6.2c0-8.22-.1-16.01,0-23.6,.1-5.58-.1-11.27,.8-16.65,2.7-18.02,16.4-28.34,34.6-26.65,14.7,1.26,25.8,14.75,25.9,31.61,.1,11.48,0,23.07,0,35.4h5.8c10.6,.11,21.2-.11,31.8,.21,15.4,.53,26.8,12.01,28.2,28.13,1.2,14.01-12,29.71-25.4,29.92-11.6,.21-23.3,.11-34.9,.21-1.7,0-3.3,.21-5.3,.32-.1,2-.3,3.58-.3,5.16,0,46.25,0,92.61,.1,138.96,0,16.44,8.4,24.55,24,23.28,3.9-.32,7.7-1.69,11.4-2.84,10.1-2.95,18-.63,23,6.74,7.3,10.96,6.4,24.76-2.1,34.87-7.6,8.96-17.5,13.06-28.2,15.49-19.3,4.32-38.3,2.74-56.2-5.79-20.8-9.8-30.2-28.34-32.2-51.41-.9-10.43-1-20.86-1.1-31.29-.1-42.56,0-85.02,0-127.58l.2-6.22h0Zm-437.5,82.19c0-36.61-.1-73.22,0-109.84,.1-18.1,12.6-31.13,29.9-31.44,16.4-.31,29.9,13.13,30.8,30.51v2.69c0,71.78-.1,143.55,0,215.33,0,12.93-4.5,23.06-15.3,29.79-9.9,6.1-20.3,6-30.3,.21-9.8-5.69-15.2-14.38-15.1-26.37,.1-36.92,0-73.85,0-110.87h0Zm13.69-180.12c-7.61-1.9-12.94-6.8-13.41-15.5-.38-8.4-.57-17,.29-25.4,.76-7.5,5.61-12.6,12.56-14.8,10.37-3.3,20.83-3.7,31.3-.9,11.32,3,14.93,7.5,16.08,21.8,.57,7-.1,14.3-1.24,21.3-1.62,9.3-6.94,13.7-18.45,14.7-5.71,.9-21.5,.2-27.11-1.2h-.02Z"/>
  </g>
</svg>